Coordinates
version=1
nRows=65
nColumns=12
inDegrees=yes

Units are S.I. units (second, meters, Newtons, ...)
Angles are in degrees

endheader
time	SC_y	SC_z	SC_x	AC_y	AC_z	AC_x	GH_y	GH_z	GH_yy	EL_x	PS_y
       0.0              -22.85          16.54          6.387          36.75         -5.867         -18.34         -126.6          64.29          101.7          71.61          17.51
   0.03523              -22.85          16.54          6.386          36.75         -5.869         -18.34         -126.5          64.28          101.7          71.61          17.53
   0.07045              -22.85          16.54          6.386          36.75         -5.871         -18.34         -126.5          64.28          101.7          71.61          17.55
    0.1057              -22.86          16.55          6.386          36.75         -5.873         -18.34         -126.5          64.27          101.6          71.62          17.57
    0.1409              -22.86          16.55          6.386          36.75         -5.875         -18.34         -126.4          64.27          101.6          71.62          17.59
    0.1761              -22.86          16.55          6.385          36.75         -5.877         -18.33         -126.4          64.26          101.6          71.62          17.62
    0.2114              -22.86          16.56          6.385          36.75          -5.88         -18.33         -126.3          64.26          101.5          71.62          17.64
    0.2466              -22.86          16.56          6.385          36.75         -5.883         -18.33         -126.3          64.25          101.5          71.62          17.67
    0.2818              -22.86          16.57          6.384          36.75         -5.885         -18.33         -126.2          64.25          101.5          71.62           17.7
     0.317              -22.86          16.57          6.384          36.75         -5.889         -18.33         -126.2          64.24          101.4          71.62          17.73
    0.3523              -22.86          16.58          6.383          36.75         -5.892         -18.32         -126.1          64.23          101.4          71.62          17.77
    0.3875              -22.86          16.58          6.383          36.75         -5.895         -18.32         -126.1          64.22          101.3          71.62          17.81
    0.4227              -22.86          16.59          6.382          36.76         -5.899         -18.32         -126.0          64.21          101.3          71.63          17.85
    0.4579              -22.86          16.59          6.382          36.76         -5.903         -18.32         -125.9           64.2          101.2          71.63          17.89
    0.4932              -22.86           16.6          6.381          36.76         -5.908         -18.31         -125.9          64.19          101.2          71.63          17.94
    0.5284              -22.86          16.61          6.381          36.76         -5.912         -18.31         -125.8          64.18          101.1          71.63          17.99
    0.5636              -22.86          16.62           6.38          36.76         -5.918         -18.31         -125.7          64.17          101.0          71.63          18.04
    0.5988              -22.86          16.62          6.379          36.76         -5.923          -18.3         -125.6          64.16          101.0          71.63           18.1
    0.6341              -22.86          16.63          6.379          36.76          -5.93          -18.3         -125.5          64.14          100.9          71.64          18.17
    0.6693              -22.86          16.64          6.378          36.76         -5.936         -18.29         -125.3          64.12          100.8          71.64          18.24
    0.7045              -22.86          16.66          6.377          36.76         -5.944         -18.29         -125.2          64.11          100.7          71.64          18.32
    0.7398              -22.86          16.67          6.376          36.76         -5.952         -18.28         -125.1          64.09          100.6          71.65          18.41
     0.775              -22.86          16.68          6.374          36.76         -5.961         -18.28         -124.9          64.07          100.5          71.65           18.5
    0.8102              -22.87           16.7          6.373          36.76         -5.971         -18.27         -124.7          64.04          100.3          71.65          18.61
    0.8454              -22.87          16.72          6.372          36.76         -5.983         -18.26         -124.5          64.02          100.2          71.66          18.73
    0.8807              -22.87          16.74           6.37          36.76         -5.995         -18.25         -124.3          63.99          100.0          71.66          18.86
    0.9159              -22.87          16.76          6.368          36.76         -6.009         -18.24         -124.1          63.95          99.82          71.67          19.01
    0.9511              -22.87          16.78          6.366          36.76         -6.025         -18.23         -123.8          63.91          99.61          71.67          19.17
    0.9863              -22.87          16.81          6.364          36.76         -6.043         -18.22         -123.5          63.87          99.37          71.68          19.36
     1.022              -22.87          16.84          6.361          36.76         -6.063          -18.2         -123.1          63.82           99.1          71.69          19.58
     1.057              -22.88          16.88          6.358          36.76         -6.086         -18.19         -122.7          63.77          98.79           71.7          19.82
     1.092              -22.88          16.92          6.355          36.76         -6.112         -18.17         -122.2          63.71          98.44          71.71           20.1
     1.127              -22.88          16.96          6.351          36.76         -6.143         -18.15         -121.7          63.64          98.03          71.72          20.42
     1.162              -22.89          17.02          6.346          36.76         -6.178         -18.12         -121.1          63.55          97.56          71.73           20.8
     1.198              -22.89          17.08          6.341          36.77          -6.22         -18.09         -120.3          63.45          97.01          71.75          21.24
     1.233               -22.9          17.16          6.334          36.77         -6.269         -18.06         -119.4          63.34          96.35          71.77          21.75
     1.268               -22.9          17.25          6.327          36.77         -6.327         -18.02         -118.4           63.2          95.58          71.79          22.37
     1.303              -22.91          17.36          6.318          36.77         -6.397         -17.97         -117.2          63.03          94.65          71.82          23.11
     1.339              -22.92          17.49          6.307          36.77         -6.481         -17.91         -115.7          62.83          93.52          71.85           24.0
     1.374              -22.93          17.65          6.293          36.78         -6.584         -17.84         -113.9          62.59          92.15          71.89          25.09
     1.409              -22.94          17.84          6.277          36.78         -6.712         -17.75         -111.6          62.29          90.45          71.94          26.43
     1.444              -22.96          18.09          6.256          36.79          -6.87         -17.64         -108.8          61.91          88.33           72.0          28.11
      1.48              -22.98           18.4           6.23          36.79          -7.07          -17.5         -105.2          61.44          85.67          72.07          30.22
     1.515               -23.0          18.79          6.197           36.8         -7.324         -17.32         -100.7          60.83          82.28          72.17          32.91
      1.55              -23.04           19.3          6.155          36.81          -7.65         -17.09         -94.98          60.06          77.94           72.3          36.35
     1.585              -23.08          19.94          6.101          36.83         -8.067          -16.8         -87.59          59.07          72.38          72.45          40.76
      1.62              -23.14          20.77          6.032          36.84           -8.6         -16.42         -78.14          57.81          65.27          72.66          46.39
     1.656              -23.21          21.81          5.945          36.87         -9.271         -15.95         -66.26          56.22          56.33          72.92          53.48
     1.691              -23.29          23.07          5.839          36.89         -10.09         -15.38         -51.78          54.28          45.43          73.23          62.11
     1.726              -23.39          24.54          5.716          36.93         -11.03         -14.72          -35.0          52.04           32.8          73.59          72.12
     1.761              -23.49          26.13          5.582          36.96         -12.06          -14.0         -16.83          49.61          19.13          73.98          82.96
     1.797               -23.6          27.72          5.449          36.99         -13.09         -13.28          1.344          47.18          5.456          74.37           93.8
     1.832               -23.7          29.18          5.326          37.02         -14.03         -12.61          18.12          44.93         -7.172          74.74          103.8
     1.867              -23.78          30.45           5.22          37.05         -14.85         -12.04           32.6           43.0         -18.07          75.05          112.4
     1.902              -23.85          31.49          5.133          37.07         -15.52         -11.57          44.48          41.41         -27.01          75.31          119.5
     1.937              -23.91          32.31          5.064          37.09         -16.05          -11.2          53.93          40.14         -34.12          75.51          125.2
     1.973              -23.95          32.96           5.01          37.11         -16.47          -10.9          61.33          39.15         -39.68          75.67          129.6
     2.008              -23.98          33.46          4.968          37.12          -16.8         -10.67          67.09          38.38         -44.02          75.79          133.0
     2.043              -24.01          33.86          4.935          37.12         -17.05          -10.5          71.59          37.78         -47.41          75.89          135.7
     2.078              -24.03          34.16          4.909          37.13         -17.25         -10.36          75.14          37.31         -50.07          75.97          137.8
     2.114              -24.05          34.41          4.888          37.14         -17.41         -10.24          77.95          36.93         -52.19          76.03          139.5
     2.149              -24.06          34.61          4.871          37.14         -17.54         -10.16           80.2          36.63         -53.89          76.08          140.8
     2.184              -24.07          34.77          4.858          37.14         -17.64         -10.08          82.03          36.38         -55.26          76.12          141.9
     2.219              -24.08           34.9          4.847          37.15         -17.72         -10.02          83.53          36.18         -56.39          76.15          142.8
     2.254              -24.09          35.01          4.838          37.15         -17.79         -9.975          84.76          36.02         -57.32          76.17          143.5
